<svg width="323" height="313" viewBox="0 0 323 313" fill="none" xmlns="http://www.w3.org/2000/svg">
<path d="M80.4267 217.749C77.6609 214.982 73.1802 214.982 70.4153 217.749L34.7633 253.422C31.9975 256.187 31.9975 260.667 34.7633 263.434C36.1463 264.818 37.9567 265.505 39.7681 265.505C41.5795 265.505 43.3909 264.818 44.7792 263.434L80.431 227.763C83.1917 225.006 83.1917 220.525 80.4267 217.749Z" fill="white"/>
<path d="M193.022 114.455C186.15 114.455 180.569 120.045 180.569 126.915C180.569 133.783 186.15 139.371 193.022 139.371C199.894 139.371 205.475 133.784 205.475 126.915C205.475 120.045 199.894 114.455 193.022 114.455Z" fill="white"/>
<path d="M304.64 18.405C292.755 6.53843 276.128 0 257.845 0C233.98 0 209.496 10.7786 190.666 29.5823C179.905 40.3283 171.573 53.2633 166.532 67.0331L143.653 102.831C140.126 101.729 135.271 100.711 129.36 100.711C108.287 100.711 76.8355 113.416 46.667 173.929C45.213 176.837 45.9307 180.347 48.4022 182.483C50.8738 184.589 54.4702 184.756 57.1314 182.889C57.3862 182.714 82.6073 165.109 102.492 165.109C103.927 165.109 105.292 165.211 106.579 165.41L93.8088 185.985C92.0999 188.735 92.4747 192.293 94.7152 194.63L130.263 231.693C132.614 234.152 136.386 234.595 139.251 232.755L160.797 218.883C163.029 231.758 164.219 255.139 147.824 269.407C145.25 271.649 144.634 275.4 146.356 278.347C147.657 280.571 150.022 281.856 152.493 281.856C153.29 281.856 154.095 281.725 154.872 281.439C155.705 281.143 236.463 251.57 223.13 180.328L264.457 152.726C273.122 148.6 281.307 143.131 288.805 136.458C289.323 136.103 289.796 135.682 290.192 135.208L290.411 135.015C291.438 134.102 292.459 133.185 293.433 132.205C327.949 97.7313 332.98 46.6906 304.64 18.405ZM193.077 153.432C178.265 153.432 166.217 141.405 166.217 126.623C166.217 111.836 178.265 99.8088 193.077 99.8088C207.89 99.8088 219.936 111.836 219.936 126.623C219.936 141.405 207.89 153.432 193.077 153.432ZM242.053 114.793C223.327 114.793 208.087 99.5825 208.087 80.8818C208.087 62.1819 223.325 46.9706 242.053 46.9706C260.784 46.9706 276.02 62.1819 276.02 80.8818C276.02 99.5825 260.784 114.793 242.053 114.793Z" fill="white"/>
<path d="M242.052 61.5099C231.328 61.5099 222.598 70.2411 222.598 80.9751C222.598 91.7092 231.328 100.44 242.052 100.44C252.785 100.44 261.513 91.7092 261.513 80.9751C261.513 70.2411 252.785 61.5099 242.052 61.5099Z" fill="white"/>
<path d="M108.379 237.685L3.49388 299.736C0.116323 301.73 -1.00601 306.102 0.985138 309.502C2.3064 311.761 4.67255 313 7.10382 313C8.33266 313 9.57119 312.694 10.7076 312.012L115.591 249.959C118.969 247.965 120.087 243.596 118.096 240.199C116.109 236.83 111.76 235.679 108.379 237.685Z" fill="white"/>
<path d="M85.559 276.775L49.9174 299.987C46.6416 302.12 45.7111 306.508 47.8472 309.785C49.2074 311.856 51.4717 313 53.788 313C55.1167 313 56.4593 312.629 57.6533 311.856L93.295 288.65C96.5707 286.51 97.4968 282.115 95.3617 278.848C93.2256 275.567 88.8339 274.64 85.559 276.775Z" fill="white"/>
<path d="M70.9957 255.383C72.3595 255.383 73.7401 254.995 74.9581 254.184L107.318 232.696C110.617 230.507 111.514 226.06 109.32 222.768C107.131 219.48 102.674 218.57 99.3831 220.766L67.0247 242.254C63.7255 244.442 62.8285 248.895 65.0226 252.181C66.3987 254.268 68.6718 255.383 70.9957 255.383Z" fill="white"/>
</svg>
