<svg width="270" height="304" viewBox="0 0 270 304" fill="none" xmlns="http://www.w3.org/2000/svg">
<path fill-rule="evenodd" clip-rule="evenodd" d="M179.506 183.627C152.016 170.935 165.798 150.883 179.506 141.323C206.262 122.651 202.133 78.1671 183.907 97.9767C175.919 106.656 170.895 103.912 168.614 101.403C166.333 98.8938 166.333 99.3487 164.734 99.3487C163.135 99.3487 163.876 97.8079 163.135 96.4139C161.192 96.5313 159.937 96.8688 160.392 95.0419C160.847 93.215 160.62 88.6515 157.656 88.6515C154.693 88.6515 150.322 90.7058 149.889 88.6515C149.456 86.5972 150.124 73.5742 146.471 68.3283C142.819 63.0825 130.775 57.191 130.775 45.3199C130.775 27.8508 145.041 8.00453 175.465 1.91493C167.555 0.647496 159.557 0.00719487 151.547 0C67.874 0 0 67.8735 0 151.595C0 235.316 67.874 303.189 151.547 303.189C159.281 303.193 167.004 302.609 174.651 301.443C91.77 258.265 149.148 191.221 179.506 183.627Z" fill="white"/>
<path fill-rule="evenodd" clip-rule="evenodd" d="M141.718 49.7952C163.854 78.0642 206.79 34.4831 227.247 76.0245C232.806 87.3086 232.381 102.056 218.196 115.717C226.873 104.411 225.743 91.0211 219.912 80.9182C198.282 43.4488 160.605 89.8178 141.718 49.7952" fill="white"/>
<path fill-rule="evenodd" clip-rule="evenodd" d="M186.136 5.17993C212.034 5.17993 244.856 25.4371 238.101 62.2829C276.16 67.9249 244.988 131.25 269.639 141.433C238.277 132.974 266.522 75.5112 230.546 67.3967C235.453 54.359 227.884 16.985 186.121 5.17993" fill="white"/>
</svg>
