<svg  width="50" height="50" viewBox="0 0 90 90" fill="currentColor" xmlns="http://www.w3.org/2000/svg">
<path d="M36.2496 44.8942L43.5996 30.3598H36.2496L54.2747 12.9894L46.3996 26.8148H53.7497L36.2496 44.8942Z" fill="#7D50F9"/>
<path d="M73 30.3598C73 14.7619 60.4 2 45 2C29.6 2 17 14.7619 17 30.3598C17 41.1719 23.125 51.0979 32.75 55.8836V65.8095C30.825 65.8095 29.25 67.4047 29.25 69.3545V72.8995C29.25 74.8492 30.825 76.4444 32.75 76.4444H34.5V78.2169C34.5 80.1666 36.075 81.7619 38 81.7619H39.75V83.5344C39.75 85.4841 41.325 87.0793 43.25 87.0793H46.75C48.675 87.0793 50.25 85.4841 50.25 83.5344V81.7619H52C53.925 81.7619 55.5 80.1666 55.5 78.2169V76.4444H57.25C59.175 76.4444 60.75 74.8492 60.75 72.8995V69.3545C60.75 67.4047 59.175 65.8095 57.25 65.8095V55.8836C66.875 51.0979 73 41.1719 73 30.3598ZM46.75 83.5344H43.25V81.7619H46.75V83.5344ZM52 78.2169H38V76.4444H52V78.2169ZM57.25 72.8995H32.75V69.3545H57.25V72.8995ZM54.8 53.0476L53.75 53.5794V65.8095H46.75V55.1746H43.25V65.8095H36.25V53.5794L35.2 53.0476C26.275 49.1481 20.5 40.2857 20.5 30.3598C20.5 16.7116 31.525 5.54497 45 5.54497C58.475 5.54497 69.5 16.7116 69.5 30.3598C69.5 40.2857 63.725 49.1481 54.8 53.0476Z" fill="currentColor"/>
</svg>
