<svg width="50" height="50" viewBox="0 0 90 90" fill="currentColor" xmlns="http://www.w3.org/2000/svg">
<path d="M40.875 76.3825H12.8568C10.2435 76.3795 7.73811 75.3267 5.89024 73.4551C4.04236 71.5835 3.00293 69.0459 3 66.399V5.8075C3 5.06291 3.29204 4.34881 3.81187 3.8223C4.3317 3.29579 5.03674 3 5.77188 3H54.7345C55.1455 2.99992 55.5515 3.09244 55.9229 3.27087C56.2943 3.4493 56.6219 3.70917 56.8819 4.03166C57.142 4.35415 57.3279 4.73117 57.4263 5.13543C57.5247 5.53969 57.5331 5.96105 57.4509 6.369L43.5915 74.1365C43.4637 74.7706 43.1235 75.3405 42.6285 75.7498C42.1335 76.1591 41.514 76.3826 40.875 76.3825ZM8.54377 8.615V66.399C8.54524 67.5571 9.00012 68.6674 9.80865 69.4863C10.6172 70.3052 11.7134 70.766 12.8568 70.7675H38.6187L51.3306 8.615H8.54377Z" fill="currentColor"/>
<path d="M84.1497 88H31.1013C30.6902 88.0001 30.2843 87.9076 29.9129 87.7291C29.5414 87.5507 29.2139 87.2908 28.9538 86.9683C28.6938 86.6459 28.5079 86.2688 28.4095 85.8646C28.311 85.4603 28.3026 85.039 28.3849 84.631L30.7631 73.0136C30.9102 72.2839 31.3374 71.6432 31.9508 71.2325C32.2545 71.0292 32.5948 70.8884 32.9522 70.8183C33.3097 70.7481 33.6772 70.75 34.034 70.8237C34.3907 70.8975 34.7296 71.0416 35.0313 71.248C35.333 71.4544 35.5916 71.719 35.7924 72.0266C35.9932 72.3342 36.1322 72.6789 36.2014 73.0409C36.2707 73.403 36.2688 73.7753 36.196 74.1366L34.5329 82.3738H81.4055V24.601C81.4048 24.0252 81.2918 23.4552 81.073 22.9237C80.8543 22.3921 80.5341 21.9096 80.1308 21.5037C79.7275 21.0979 79.2491 20.7767 78.7229 20.5585C78.1967 20.3404 77.6332 20.2296 77.0647 20.2326H52.3617C51.6265 20.2326 50.9215 19.9368 50.4017 19.4103C49.8818 18.8837 49.5898 18.1696 49.5898 17.4251C49.5898 16.6805 49.8818 15.9664 50.4017 15.4399C50.9215 14.9133 51.6265 14.6176 52.3617 14.6176H77.0647C79.678 14.6205 82.1834 15.6733 84.0313 17.5449C85.8792 19.4165 86.9186 21.9542 86.9215 24.601V85.1925C86.9215 85.9371 86.6295 86.6512 86.1097 87.1777C85.5898 87.7042 84.8848 88 84.1497 88V88Z" fill="currentColor"/>
<path d="M17.2421 41.008C16.507 41.008 15.8019 40.7122 15.2821 40.1857C14.7623 39.6592 14.4702 38.9451 14.4702 38.2005V24.4494C14.4702 21.8433 15.4923 19.3439 17.3117 17.5012C19.1311 15.6584 21.5988 14.6231 24.1718 14.6231C26.7448 14.6231 29.2125 15.6584 31.0319 17.5012C32.8513 19.3439 33.8734 21.8433 33.8734 24.4494V38.2005C33.8734 38.9451 33.5814 39.6592 33.0615 40.1857C32.5417 40.7122 31.8367 41.008 31.1015 41.008C30.3664 41.008 29.6613 40.7122 29.1415 40.1857C28.6217 39.6592 28.3296 38.9451 28.3296 38.2005V24.4381C28.3296 23.3212 27.8916 22.2501 27.1118 21.4603C26.3321 20.6706 25.2745 20.2269 24.1718 20.2269C23.0691 20.2269 22.0115 20.6706 21.2318 21.4603C20.452 22.2501 20.014 23.3212 20.014 24.4381V38.2005C20.014 38.9451 19.7219 39.6592 19.2021 40.1857C18.6823 40.7122 17.9772 41.008 17.2421 41.008V41.008Z" fill="#7D50F9"/>
<path d="M31.1015 32.024H17.2421C16.507 32.024 15.8019 31.7282 15.2821 31.2017C14.7623 30.6752 14.4702 29.9611 14.4702 29.2165C14.4702 28.4719 14.7623 27.7578 15.2821 27.2313C15.8019 26.7048 16.507 26.409 17.2421 26.409H31.1015C31.8367 26.409 32.5417 26.7048 33.0615 27.2313C33.5814 27.7578 33.8734 28.4719 33.8734 29.2165C33.8734 29.9611 33.5814 30.6752 33.0615 31.2017C32.5417 31.7282 31.8367 32.024 31.1015 32.024Z" fill="#7D50F9"/>
<path d="M56.1647 76.3826C55.6157 76.3836 55.0788 76.2194 54.6221 75.911C54.1653 75.6026 53.8093 75.1637 53.5991 74.6501C53.3889 74.1365 53.334 73.5712 53.4414 73.026C53.5487 72.4807 53.8135 71.98 54.2022 71.5874L65.9882 59.6499H56.1647C55.4295 59.6499 54.7245 59.3541 54.2046 58.8276C53.6848 58.3011 53.3928 57.587 53.3928 56.8424C53.3928 56.0978 53.6848 55.3837 54.2046 54.8572C54.7245 54.3306 55.4295 54.0349 56.1647 54.0349H72.6796C73.2285 54.0339 73.7654 54.198 74.2221 54.5064C74.6789 54.8148 75.0349 55.2537 75.2451 55.7673C75.4553 56.2809 75.5102 56.8462 75.4029 57.3915C75.2955 57.9367 75.0307 58.4374 74.6421 58.8301L58.1216 75.5572C57.603 76.084 56.8992 76.3809 56.1647 76.3826V76.3826Z" fill="#7D50F9"/>
<path d="M72.6797 76.3825C72.3151 76.3824 71.954 76.3094 71.6173 76.1678C71.2805 76.0262 70.9747 75.8186 70.7172 75.5571L62.4626 67.1963C61.9576 66.6668 61.6782 65.9576 61.6846 65.2215C61.6909 64.4854 61.9824 63.7812 62.4963 63.2607C63.0102 62.7402 63.7055 62.4449 64.4323 62.4385C65.159 62.4321 65.8592 62.7151 66.382 63.2265L74.6422 71.5873C75.0309 71.9799 75.2957 72.4806 75.403 73.0259C75.5104 73.5711 75.4555 74.1364 75.2453 74.65C75.0351 75.1636 74.679 75.6025 74.2223 75.9109C73.7655 76.2193 73.2287 76.3835 72.6797 76.3825V76.3825Z" fill="#7D50F9"/>
<path d="M68.5496 51.2891H60.4834C59.7483 51.2891 59.0432 50.9933 58.5234 50.4668C58.0036 49.9403 57.7115 49.2262 57.7115 48.4816C57.7115 47.737 58.0036 47.0229 58.5234 46.4964C59.0432 45.9699 59.7483 45.6741 60.4834 45.6741H68.5774C69.3125 45.6741 70.0175 45.9699 70.5374 46.4964C71.0572 47.0229 71.3492 47.737 71.3492 48.4816C71.3492 49.2262 71.0572 49.9403 70.5374 50.4668C70.0175 50.9933 69.3125 51.2891 68.5774 51.2891H68.5496Z" fill="#7D50F9"/>
</svg>
