<svg width="34" height="24" viewBox="0 0 34 24" fill="none" xmlns="http://www.w3.org/2000/svg">
<path d="M28.0214 10.1432C28.2351 9.58543 28.355 8.97559 28.355 8.33969C28.355 5.57717 26.1137 3.33588 23.3511 3.33588C22.3243 3.33588 21.3653 3.64862 20.573 4.18027C19.1292 1.67836 16.4344 0 13.3435 0C8.73583 0 5.00382 3.73201 5.00382 8.33969C5.00382 8.48043 5.00903 8.62116 5.01424 8.76189C2.09535 9.78871 0 12.5721 0 15.8454C0 19.9892 3.36194 23.3511 7.50572 23.3511H26.687C30.3721 23.3511 33.3588 20.3645 33.3588 16.6794C33.3588 13.453 31.0654 10.7582 28.0214 10.1432ZM21.0942 14.7665L15.6004 20.2602C15.2773 20.5834 14.7456 20.5834 14.4225 20.2602L8.92868 14.7665C8.40224 14.24 8.77753 13.3435 9.51767 13.3435H12.9265V7.50572C12.9265 7.04704 13.3018 6.67175 13.7605 6.67175H16.2624C16.7211 6.67175 17.0964 7.04704 17.0964 7.50572V13.3435H20.5052C21.2454 13.3435 21.6207 14.24 21.0942 14.7665V14.7665Z" fill="#7D50F9"/>
</svg>
