<svg width="65" height="64" viewBox="0 0 65 64" fill="none" xmlns="http://www.w3.org/2000/svg">
<rect x="2.65771" y="2.5" width="59" height="59" rx="5.5" stroke="currentColor" stroke-width="5"/>
<path d="M32.7978 14.08C42.1795 14.08 49.815 21.5565 50.0712 30.8763L50.0778 31.36V33.088C50.0778 36.8428 47.4468 40 44.0298 40C42.0028 40 40.2523 38.8889 39.1637 37.2011C37.5854 38.9213 35.3176 40 32.7978 40C28.0261 40 24.1578 36.1317 24.1578 31.36C24.1578 26.5882 28.0261 22.72 32.7978 22.72C37.444 22.72 41.2336 26.3873 41.4298 30.9852L41.4378 31.36V33.088C41.4378 35.0593 42.6751 36.544 44.0298 36.544C45.3168 36.544 46.4978 35.204 46.6127 33.3799L46.6218 33.088V31.36C46.6218 23.7252 40.4326 17.536 32.7978 17.536C25.163 17.536 18.9738 23.7252 18.9738 31.36C18.9738 38.9948 25.163 45.184 32.7978 45.184C34.8077 45.184 36.7537 44.7559 38.5391 43.9395C39.4071 43.5427 40.4324 43.9246 40.8292 44.7925C41.226 45.6604 40.8442 46.6857 39.9762 47.0826C37.742 48.1041 35.3061 48.64 32.7978 48.64C23.2543 48.64 15.5178 40.9035 15.5178 31.36C15.5178 21.8165 23.2543 14.08 32.7978 14.08V14.08ZM32.7978 26.176C29.9348 26.176 27.6138 28.4969 27.6138 31.36C27.6138 34.223 29.9348 36.544 32.7978 36.544C35.6609 36.544 37.9818 34.223 37.9818 31.36C37.9818 28.4969 35.6609 26.176 32.7978 26.176Z" fill="#7D50F9"/>
</svg>
