<svg width="64" height="64" viewBox="0 0 64 64" fill="none" xmlns="http://www.w3.org/2000/svg">
<rect x="2.5" y="2.5" width="59" height="59" rx="5.5" stroke="currentColor" stroke-width="5"/>
<path d="M32.0001 27.5083C33.6812 25.7905 35.8702 24.6667 38.4167 24.6667C41.091 24.6667 43.6557 25.729 45.5467 27.62C47.4377 29.511 48.5001 32.0757 48.5001 34.75V48.5H44.8334V34.75C44.8334 33.0482 44.1574 31.4161 42.954 30.2127C41.7507 29.0094 40.1185 28.3333 38.4167 28.3333C36.7149 28.3333 35.0828 29.0094 33.8795 30.2127C32.6761 31.4161 32.0001 33.0482 32.0001 34.75V48.5H28.3334V25.5833H32.0001V27.5083ZM19.1667 21.9167C18.4374 21.9167 17.7379 21.6269 17.2222 21.1112C16.7065 20.5955 16.4167 19.896 16.4167 19.1667C16.4167 18.4373 16.7065 17.7378 17.2222 17.2221C17.7379 16.7064 18.4374 16.4167 19.1667 16.4167C19.8961 16.4167 20.5956 16.7064 21.1113 17.2221C21.627 17.7378 21.9167 18.4373 21.9167 19.1667C21.9167 19.896 21.627 20.5955 21.1113 21.1112C20.5956 21.6269 19.8961 21.9167 19.1667 21.9167ZM17.3334 25.5833H21.0001V48.5H17.3334V25.5833Z" fill="#7D50F9"/>
</svg>
