<svg width="64" height="63" viewBox="0 0 64 63" fill="none" xmlns="http://www.w3.org/2000/svg">
<path d="M44.24 27.9463C44.4706 27.3444 44.6 26.6863 44.6 26C44.6 23.0188 42.1812 20.6 39.2 20.6C38.0919 20.6 37.0569 20.9375 36.2019 21.5113C34.6438 18.8112 31.7356 17 28.4 17C23.4275 17 19.4 21.0275 19.4 26C19.4 26.1519 19.4056 26.3038 19.4112 26.4556C16.2612 27.5638 14 30.5675 14 34.1C14 38.5719 17.6281 42.2 22.1 42.2H42.8C46.7769 42.2 50 38.9769 50 35C50 31.5181 47.525 28.61 44.24 27.9463ZM36.7644 32.9356L30.8356 38.8644C30.4869 39.2131 29.9131 39.2131 29.5644 38.8644L23.6356 32.9356C23.0675 32.3675 23.4725 31.4 24.2713 31.4H27.95V25.1C27.95 24.605 28.355 24.2 28.85 24.2H31.55C32.045 24.2 32.45 24.605 32.45 25.1V31.4H36.1287C36.9275 31.4 37.3325 32.3675 36.7644 32.9356V32.9356Z" fill="#7D50F9"/>
<rect x="3" y="2.5" width="58" height="58" rx="5.5" stroke="currentColor" stroke-width="5"/>
</svg>
