<svg width="65" height="64" viewBox="0 0 65 64" fill="none" xmlns="http://www.w3.org/2000/svg">
<rect x="3.0791" y="2.5" width="59" height="59" rx="5.5" stroke="currentColor" stroke-width="5"/>
<path d="M39.8154 49.0666C39.3627 49.0666 38.9286 48.8868 38.6086 48.5668C38.2885 48.2467 38.1087 47.8126 38.1087 47.36V42.9226C38.1617 42.4122 38.1071 41.8964 37.9483 41.4084C37.7896 40.9204 37.5303 40.4711 37.1871 40.0896C36.9746 39.8591 36.8297 39.5746 36.7683 39.2673C36.7068 38.9599 36.7312 38.6416 36.8387 38.3471C36.9463 38.0527 37.1328 37.7936 37.3779 37.5982C37.623 37.4028 37.9172 37.2787 38.2282 37.2394C42.3924 36.7445 46.2324 35.4133 46.2324 28.1941C46.2337 26.846 45.8359 25.5276 45.089 24.4053C44.3997 23.3721 44.1481 22.1079 44.3892 20.8896C44.543 20.0948 44.543 19.2779 44.3892 18.4832C43.1113 18.9153 41.908 19.5428 40.8223 20.3434C40.617 20.4892 40.382 20.5878 40.1342 20.632C39.8863 20.6763 39.6317 20.6652 39.3887 20.5994C36.3087 19.7291 33.0479 19.7291 29.9679 20.5994C29.7248 20.6652 29.4703 20.6763 29.2224 20.632C28.9746 20.5878 28.7396 20.4892 28.5343 20.3434C27.4419 19.5335 26.2259 18.9054 24.9332 18.4832C24.7709 19.2771 24.7709 20.0957 24.9332 20.8896C25.1569 22.1232 24.8939 23.3956 24.1994 24.4394C23.4557 25.5696 23.0583 26.8924 23.0559 28.2453C23.0559 34.8842 26.2644 36.6592 31.0772 37.2736C31.3921 37.3127 31.6899 37.4388 31.9372 37.6377C32.1844 37.8367 32.3712 38.1007 32.4767 38.4C32.5759 38.6904 32.595 39.0022 32.5319 39.3025C32.4689 39.6029 32.326 39.8807 32.1183 40.1066C31.7863 40.4615 31.5315 40.8813 31.37 41.3395C31.2084 41.7977 31.1436 42.2845 31.1796 42.769V47.36C31.1796 47.8126 30.9998 48.2467 30.6797 48.5668C30.3597 48.8868 29.9256 49.0666 29.473 49.0666C29.0203 49.0666 28.5862 48.8868 28.2662 48.5668C27.9461 48.2467 27.7663 47.8126 27.7663 47.36V46.3872C26.0893 46.58 24.3906 46.3553 22.8214 45.733C21.2522 45.1107 19.8612 44.1101 18.7722 42.8202C18.2124 42.1998 17.5408 41.6903 16.7924 41.3184C16.575 41.2623 16.3708 41.164 16.1914 41.0291C16.012 40.8941 15.8609 40.7251 15.7468 40.5318C15.6327 40.3385 15.5578 40.1245 15.5264 39.9022C15.4949 39.68 15.5076 39.4536 15.5636 39.2362C15.6197 39.0188 15.718 38.8146 15.8529 38.6352C15.9879 38.4558 16.1569 38.3047 16.3502 38.1906C16.5435 38.0765 16.7575 38.0016 16.9798 37.9702C17.202 37.9388 17.4284 37.9514 17.6458 38.0074C18.9586 38.4857 20.1317 39.2834 21.0591 40.3285C22.7658 42.0352 24.4724 43.537 27.7151 42.9226C27.6581 42.0063 27.7917 41.0881 28.1076 40.2261C24.5919 39.3386 19.5743 36.8128 19.5743 28.2794C19.5698 26.2581 20.1636 24.2807 21.281 22.5962C21.4885 22.2853 21.568 21.9062 21.5028 21.5381C21.158 19.6959 21.3536 17.7932 22.066 16.0597C22.1628 15.8286 22.3093 15.6216 22.4952 15.4535C22.681 15.2853 22.9016 15.1602 23.1412 15.0869C23.7215 14.9162 25.8036 14.5749 29.746 17.1349C32.9374 16.3669 36.2655 16.3669 39.457 17.1349C43.3994 14.5749 45.4815 14.8992 46.0447 15.0869C46.2843 15.1602 46.5049 15.2853 46.6907 15.4535C46.8766 15.6216 47.0231 15.8286 47.1199 16.0597C47.8338 17.7989 48.0294 19.7074 47.6831 21.5552C47.6482 21.7217 47.6468 21.8935 47.679 22.0605C47.7112 22.2275 47.7765 22.3864 47.8708 22.528C48.9914 24.2173 49.5854 26.2011 49.5775 28.2282C49.5775 36.881 44.594 39.3898 41.0441 40.1749C41.3569 41.0907 41.4845 42.0595 41.4196 43.025V47.36C41.4204 47.7954 41.2547 48.2147 40.9565 48.532C40.6582 48.8492 40.25 49.0405 39.8154 49.0666Z" fill="#7D50F9"/>
</svg>
