<svg width="287" height="110" viewBox="0 0 287 110" fill="none" xmlns="http://www.w3.org/2000/svg">
<path d="M12.6606 87.6L17.5006 71.68H24.7806L16.8606 94H8.42063L0.500625 71.68H7.82063L12.6606 87.6ZM37.8197 94.32C35.633 94.32 33.6597 93.8533 31.8997 92.92C30.1664 91.9867 28.793 90.6533 27.7797 88.92C26.793 87.1867 26.2997 85.16 26.2997 82.84C26.2997 80.5467 26.8064 78.5333 27.8197 76.8C28.833 75.04 30.2197 73.6933 31.9797 72.76C33.7397 71.8267 35.713 71.36 37.8997 71.36C40.0864 71.36 42.0597 71.8267 43.8197 72.76C45.5797 73.6933 46.9664 75.04 47.9797 76.8C48.993 78.5333 49.4997 80.5467 49.4997 82.84C49.4997 85.1333 48.9797 87.16 47.9397 88.92C46.9264 90.6533 45.5264 91.9867 43.7397 92.92C41.9797 93.8533 40.0064 94.32 37.8197 94.32ZM37.8197 88.4C39.1264 88.4 40.233 87.92 41.1397 86.96C42.073 86 42.5397 84.6267 42.5397 82.84C42.5397 81.0533 42.0864 79.68 41.1797 78.72C40.2997 77.76 39.2064 77.28 37.8997 77.28C36.5664 77.28 35.4597 77.76 34.5797 78.72C33.6997 79.6533 33.2597 81.0267 33.2597 82.84C33.2597 84.6267 33.6864 86 34.5397 86.96C35.4197 87.92 36.513 88.4 37.8197 88.4ZM59.9684 64.4V94H53.1284V64.4H59.9684ZM77.3653 88.2V94H73.8853C71.4053 94 69.472 93.4 68.0853 92.2C66.6986 90.9733 66.0053 88.9867 66.0053 86.24V77.36H63.2853V71.68H66.0053V66.24H72.8453V71.68H77.3253V77.36H72.8453V86.32C72.8453 86.9867 73.0053 87.4667 73.3253 87.76C73.6453 88.0533 74.1786 88.2 74.9253 88.2H77.3653ZM79.8153 82.8C79.8153 80.5067 80.242 78.4933 81.0953 76.76C81.9753 75.0267 83.162 73.6933 84.6553 72.76C86.1486 71.8267 87.8153 71.36 89.6553 71.36C91.2286 71.36 92.602 71.68 93.7753 72.32C94.9753 72.96 95.8953 73.8 96.5353 74.84V71.68H103.375V94H96.5353V90.84C95.8686 91.88 94.9353 92.72 93.7353 93.36C92.562 94 91.1886 94.32 89.6153 94.32C87.802 94.32 86.1486 93.8533 84.6553 92.92C83.162 91.96 81.9753 90.6133 81.0953 88.88C80.242 87.12 79.8153 85.0933 79.8153 82.8ZM96.5353 82.84C96.5353 81.1333 96.0553 79.7867 95.0953 78.8C94.162 77.8133 93.0153 77.32 91.6553 77.32C90.2953 77.32 89.1353 77.8133 88.1753 78.8C87.242 79.76 86.7753 81.0933 86.7753 82.8C86.7753 84.5067 87.242 85.8667 88.1753 86.88C89.1353 87.8667 90.2953 88.36 91.6553 88.36C93.0153 88.36 94.162 87.8667 95.0953 86.88C96.0553 85.8933 96.5353 84.5467 96.5353 82.84ZM115.164 75.4C115.964 74.1733 116.964 73.2133 118.164 72.52C119.364 71.8 120.697 71.44 122.164 71.44V78.68H120.284C118.577 78.68 117.297 79.0533 116.444 79.8C115.59 80.52 115.164 81.8 115.164 83.64V94H108.324V71.68H115.164V75.4ZM132.55 82.8C132.55 80.5067 132.976 78.4933 133.83 76.76C134.71 75.0267 135.896 73.6933 137.39 72.76C138.883 71.8267 140.55 71.36 142.39 71.36C143.963 71.36 145.336 71.68 146.51 72.32C147.71 72.96 148.63 73.8 149.27 74.84V71.68H156.11V94H149.27V90.84C148.603 91.88 147.67 92.72 146.47 93.36C145.296 94 143.923 94.32 142.35 94.32C140.536 94.32 138.883 93.8533 137.39 92.92C135.896 91.96 134.71 90.6133 133.83 88.88C132.976 87.12 132.55 85.0933 132.55 82.8ZM149.27 82.84C149.27 81.1333 148.79 79.7867 147.83 78.8C146.896 77.8133 145.75 77.32 144.39 77.32C143.03 77.32 141.87 77.8133 140.91 78.8C139.976 79.76 139.51 81.0933 139.51 82.8C139.51 84.5067 139.976 85.8667 140.91 86.88C141.87 87.8667 143.03 88.36 144.39 88.36C145.75 88.36 146.896 87.8667 147.83 86.88C148.79 85.8933 149.27 84.5467 149.27 82.84ZM171.218 94.32C169.031 94.32 167.058 93.8533 165.298 92.92C163.565 91.9867 162.191 90.6533 161.178 88.92C160.191 87.1867 159.698 85.16 159.698 82.84C159.698 80.5467 160.205 78.5333 161.218 76.8C162.231 75.04 163.618 73.6933 165.378 72.76C167.138 71.8267 169.111 71.36 171.298 71.36C173.485 71.36 175.458 71.8267 177.218 72.76C178.978 73.6933 180.365 75.04 181.378 76.8C182.391 78.5333 182.898 80.5467 182.898 82.84C182.898 85.1333 182.378 87.16 181.338 88.92C180.325 90.6533 178.925 91.9867 177.138 92.92C175.378 93.8533 173.405 94.32 171.218 94.32ZM171.218 88.4C172.525 88.4 173.631 87.92 174.538 86.96C175.471 86 175.938 84.6267 175.938 82.84C175.938 81.0533 175.485 79.68 174.578 78.72C173.698 77.76 172.605 77.28 171.298 77.28C169.965 77.28 168.858 77.76 167.978 78.72C167.098 79.6533 166.658 81.0267 166.658 82.84C166.658 84.6267 167.085 86 167.938 86.96C168.818 87.92 169.911 88.4 171.218 88.4ZM207.443 88.2V94H203.963C201.483 94 199.55 93.4 198.163 92.2C196.777 90.9733 196.083 88.9867 196.083 86.24V77.36H193.363V71.68H196.083V66.24H202.923V71.68H207.403V77.36H202.923V86.32C202.923 86.9867 203.083 87.4667 203.403 87.76C203.723 88.0533 204.257 88.2 205.003 88.2H207.443ZM221.413 94.32C219.227 94.32 217.253 93.8533 215.493 92.92C213.76 91.9867 212.387 90.6533 211.373 88.92C210.387 87.1867 209.893 85.16 209.893 82.84C209.893 80.5467 210.4 78.5333 211.413 76.8C212.427 75.04 213.813 73.6933 215.573 72.76C217.333 71.8267 219.307 71.36 221.493 71.36C223.68 71.36 225.653 71.8267 227.413 72.76C229.173 73.6933 230.56 75.04 231.573 76.8C232.587 78.5333 233.093 80.5467 233.093 82.84C233.093 85.1333 232.573 87.16 231.533 88.92C230.52 90.6533 229.12 91.9867 227.333 92.92C225.573 93.8533 223.6 94.32 221.413 94.32ZM221.413 88.4C222.72 88.4 223.827 87.92 224.733 86.96C225.667 86 226.133 84.6267 226.133 82.84C226.133 81.0533 225.68 79.68 224.773 78.72C223.893 77.76 222.8 77.28 221.493 77.28C220.16 77.28 219.053 77.76 218.173 78.72C217.293 79.6533 216.853 81.0267 216.853 82.84C216.853 84.6267 217.28 86 218.133 86.96C219.013 87.92 220.107 88.4 221.413 88.4ZM243.562 74.84C244.229 73.8 245.149 72.96 246.322 72.32C247.496 71.68 248.869 71.36 250.442 71.36C252.282 71.36 253.949 71.8267 255.442 72.76C256.936 73.6933 258.109 75.0267 258.962 76.76C259.842 78.4933 260.282 80.5067 260.282 82.8C260.282 85.0933 259.842 87.12 258.962 88.88C258.109 90.6133 256.936 91.96 255.442 92.92C253.949 93.8533 252.282 94.32 250.442 94.32C248.896 94.32 247.522 94 246.322 93.36C245.149 92.72 244.229 91.8933 243.562 90.88V104.64H236.722V71.68H243.562V74.84ZM253.322 82.8C253.322 81.0933 252.842 79.76 251.882 78.8C250.949 77.8133 249.789 77.32 248.402 77.32C247.042 77.32 245.882 77.8133 244.922 78.8C243.989 79.7867 243.522 81.1333 243.522 82.84C243.522 84.5467 243.989 85.8933 244.922 86.88C245.882 87.8667 247.042 88.36 248.402 88.36C249.762 88.36 250.922 87.8667 251.882 86.88C252.842 85.8667 253.322 84.5067 253.322 82.8ZM274.031 94.32C271.844 94.32 269.871 93.8533 268.111 92.92C266.377 91.9867 265.004 90.6533 263.991 88.92C263.004 87.1867 262.511 85.16 262.511 82.84C262.511 80.5467 263.017 78.5333 264.031 76.8C265.044 75.04 266.431 73.6933 268.191 72.76C269.951 71.8267 271.924 71.36 274.111 71.36C276.297 71.36 278.271 71.8267 280.031 72.76C281.791 73.6933 283.177 75.04 284.191 76.8C285.204 78.5333 285.711 80.5467 285.711 82.84C285.711 85.1333 285.191 87.16 284.151 88.92C283.137 90.6533 281.737 91.9867 279.951 92.92C278.191 93.8533 276.217 94.32 274.031 94.32ZM274.031 88.4C275.337 88.4 276.444 87.92 277.351 86.96C278.284 86 278.751 84.6267 278.751 82.84C278.751 81.0533 278.297 79.68 277.391 78.72C276.511 77.76 275.417 77.28 274.111 77.28C272.777 77.28 271.671 77.76 270.791 78.72C269.911 79.6533 269.471 81.0267 269.471 82.84C269.471 84.6267 269.897 86 270.751 86.96C271.631 87.92 272.724 88.4 274.031 88.4Z" fill="currentColor" fill-opacity="0.2"/>
<path d="M99 50L144 5L189 50" stroke="currentColor" stroke-opacity="0.2" stroke-width="10" stroke-linecap="round" stroke-linejoin="round"/>
</svg>
